<svg width="49" height="48" viewBox="0 0 49 48" fill="none" xmlns="http://www.w3.org/2000/svg">
<path d="M48.0556 23.9985C48.0556 10.9295 37.4591 0.333008 24.3901 0.333008C11.3211 0.333008 0.724609 10.9295 0.724609 23.9985C0.724609 35.7724 9.31954 45.5447 20.6225 47.3108V30.8274H14.6178V23.9985H20.6225V18.818C20.6225 12.9311 24.1546 9.63437 29.5706 9.63437C32.1609 9.63437 34.8689 10.1053 34.8689 10.1053V15.8745H31.9254C28.9819 15.8745 28.04 17.6406 28.04 19.5244V23.9985H34.6334L33.5737 30.8274H28.04V47.3108C39.3429 45.5447 48.0556 35.7724 48.0556 23.9985Z" fill="url(#paint0_linear_414_278)"/>
<path d="M33.5731 30.8273L34.6328 23.9985H28.0394V19.5244C28.0394 17.6406 28.9813 15.8745 31.9248 15.8745H34.8683V9.98756C34.8683 9.98756 32.1603 9.5166 29.57 9.5166C24.154 9.5166 20.6219 12.8133 20.6219 18.7002V23.8807H14.6172V30.7096H20.6219V47.193C21.7993 47.4285 23.0944 47.4285 24.2718 47.4285C25.4492 47.4285 26.7443 47.3108 27.9217 47.193V30.7096H33.5731V30.8273Z" fill="white"/>
<defs>
<linearGradient id="paint0_linear_414_278" x1="7.6513" y1="7.25958" x2="41.0961" y2="40.7043" gradientUnits="userSpaceOnUse">
<stop stop-color="#4676ED"/>
<stop offset="0.1854" stop-color="#436DE4"/>
<stop offset="0.487" stop-color="#3C55CD"/>
<stop offset="0.8651" stop-color="#302EA8"/>
<stop offset="1" stop-color="#2B1E99"/>
</linearGradient>
</defs>
</svg>
