<svg width="49" height="48" viewBox="0 0 49 48" fill="none" xmlns="http://www.w3.org/2000/svg">
<path d="M24.5659 47.6645C37.636 47.6645 48.2314 37.0691 48.2314 23.999C48.2314 10.9289 37.636 0.333496 24.5659 0.333496C11.4958 0.333496 0.900391 10.9289 0.900391 23.999C0.900391 37.0691 11.4958 47.6645 24.5659 47.6645Z" fill="url(#paint0_linear_414_281)"/>
<path d="M31.8651 18.3475C32.7755 18.3475 33.5135 17.6095 33.5135 16.6991C33.5135 15.7888 32.7755 15.0508 31.8651 15.0508C30.9548 15.0508 30.2168 15.7888 30.2168 16.6991C30.2168 17.6095 30.9548 18.3475 31.8651 18.3475Z" fill="white"/>
<path d="M24.6833 17.1704C20.9157 17.1704 17.8545 20.2316 17.8545 23.9993C17.8545 27.7669 20.9157 30.8281 24.6833 30.8281C28.451 30.8281 31.5122 27.7669 31.5122 23.9993C31.5122 20.2316 28.451 17.1704 24.6833 17.1704ZM24.6833 28.3556C22.3286 28.3556 20.327 26.354 20.327 23.9993C20.327 21.6445 22.3286 19.6429 24.6833 19.6429C27.0381 19.6429 29.0397 21.6445 29.0397 23.9993C29.0397 26.354 27.0381 28.3556 24.6833 28.3556Z" fill="white"/>
<path d="M30.0998 37.7746H19.0323C14.4405 37.7746 10.6729 34.007 10.6729 29.4152V18.3477C10.6729 13.7559 14.4405 9.98828 19.0323 9.98828H30.0998C34.6916 9.98828 38.4592 13.7559 38.4592 18.3477V29.4152C38.4592 34.1247 34.6916 37.7746 30.0998 37.7746ZM19.0323 12.6963C15.8534 12.6963 13.2631 15.2865 13.2631 18.4655V29.5329C13.2631 32.7119 15.8534 35.3021 19.0323 35.3021H30.0998C33.2787 35.3021 35.869 32.7119 35.869 29.5329V18.4655C35.869 15.2865 33.2787 12.6963 30.0998 12.6963H19.0323Z" fill="white"/>
<defs>
<linearGradient id="paint0_linear_414_281" x1="41.2718" y1="7.26019" x2="7.82696" y2="40.705" gradientUnits="userSpaceOnUse">
<stop offset="0.0011048" stop-color="#FBE18A"/>
<stop offset="0.2094" stop-color="#FCBB45"/>
<stop offset="0.3765" stop-color="#F75274"/>
<stop offset="0.5238" stop-color="#D53692"/>
<stop offset="0.7394" stop-color="#8F39CE"/>
<stop offset="1" stop-color="#5B4FE9"/>
</linearGradient>
</defs>
</svg>
