<svg width="48" height="48" viewBox="0 0 48 48" fill="none" xmlns="http://www.w3.org/2000/svg">
<path d="M23.7417 47.6645C36.8118 47.6645 47.4072 37.0691 47.4072 23.999C47.4072 10.9289 36.8118 0.333496 23.7417 0.333496C10.6716 0.333496 0.0761719 10.9289 0.0761719 23.999C0.0761719 37.0691 10.6716 47.6645 23.7417 47.6645Z" fill="url(#paint0_linear_414_288)"/>
<path d="M13.8508 19.5249H18.4427V34.2423H13.8508V19.5249ZM16.0879 12.2251C17.5007 12.2251 18.7959 13.4025 18.7959 14.9331C18.7959 16.346 17.6185 17.6411 16.0879 17.6411C14.675 17.6411 13.3799 16.4637 13.3799 14.9331C13.4976 13.4025 14.675 12.2251 16.0879 12.2251Z" fill="white"/>
<path d="M21.2686 19.5246H25.6249V21.5262H25.7426C26.3313 20.3488 27.8619 19.1714 30.099 19.1714C34.6908 19.1714 35.6327 22.2326 35.6327 26.2357V34.3597H31.0409V27.1776C31.0409 25.4115 31.0409 23.2922 28.6861 23.2922C26.3313 23.2922 25.9781 25.1761 25.9781 27.0599V34.3597H21.2686V19.5246Z" fill="white"/>
<defs>
<linearGradient id="paint0_linear_414_288" x1="40.4476" y1="7.26019" x2="7.00286" y2="40.7051" gradientUnits="userSpaceOnUse">
<stop stop-color="#007AB5"/>
<stop offset="1" stop-color="#0046E5"/>
</linearGradient>
</defs>
</svg>
